<mxfile host="app.diagrams.net" modified="2024-02-23T14:20:16.766Z" agent="Mozilla/5.0 (Windows NT 10.0; Win64; x64) AppleWebKit/537.36 (KHTML, like Gecko) Chrome/121.0.0.0 Safari/537.36" version="23.1.5" etag="o5Z4Wb2dCPdtcSIhc4CW" type="github">
  <diagram name="Page-1" id="523MKJ4naegatTlI2Sc9">
    <mxGraphModel>
      <root>
        <mxCell id="0" />
        <mxCell id="1" parent="0" />
      </root>
    </mxGraphModel>
  </diagram>
</mxfile>
